MerriweatherSans-LightItalic.ufo
<glyph name="exclam" format="1">
  <advance width="621"/>
  <unicode hex="0021"/>
  <outline>
    <contour>
      <point x="236" y="488" type="line"/>
      <point x="356" y="488" type="line"/>
      <point x="571" y="1778" type="line"/>
      <point x="399" y="1778" type="line"/>
    </contour>
    <contour>
      <point x="132" y="85" type="curve" smooth="yes"/>
      <point x="123" y="18"/>
      <point x="167" y="-17"/>
      <point x="221" y="-17" type="curve" smooth="yes"/>
      <point x="289" y="-17"/>
      <point x="346" y="26"/>
      <point x="357" y="101" type="curve" smooth="yes"/>
      <point x="365" y="160"/>
      <point x="339" y="203"/>
      <point x="267" y="203" type="curve" smooth="yes"/>
      <point x="202" y="203"/>
      <point x="141" y="155"/>
    </contour>
  </outline>
</glyph>
<glyph name="comma" format="1">
  <advance width="503"/>
  <unicode hex="002C"/>
  <outline>
    <contour>
      <point x="184" y="-81" type="curve" smooth="yes"/>
      <point x="184" y="-243"/>
      <point x="88" y="-363"/>
      <point x="-20" y="-416" type="curve"/>
      <point x="-22" y="-434" type="line"/>
      <point x="33" y="-501" type="line"/>
      <point x="217" y="-430"/>
      <point x="343" y="-254"/>
      <point x="343" y="-31" type="curve" smooth="yes"/>
      <point x="343" y="71"/>
      <point x="307" y="206"/>
      <point x="175" y="265" type="curve"/>
      <point x="96" y="168" type="line"/>
      <point x="90" y="127" type="line"/>
      <point x="144" y="102"/>
      <point x="184" y="23"/>
    </contour>
  </outline>
</glyph>
<glyph name="three" format="1">
  <advance width="1100"/>
  <unicode hex="0033"/>
  <outline>
    <contour>
      <point x="55" y="-200" type="curve"/>
      <point x="42" y="-315" type="line"/>
      <point x="107" y="-323"/>
      <point x="160" y="-327"/>
      <point x="210" y="-327" type="curve" smooth="yes"/>
      <point x="560" y="-327"/>
      <point x="926" y="-132"/>
      <point x="926" y="176" type="curve" smooth="yes"/>
      <point x="926" y="338"/>
      <point x="809" y="481"/>
      <point x="572" y="481" type="curve"/>
      <point x="759" y="548"/>
      <point x="940" y="698"/>
      <point x="940" y="879" type="curve" smooth="yes"/>
      <point x="940" y="1075"/>
      <point x="783" y="1160"/>
      <point x="613" y="1160" type="curve" smooth="yes"/>
      <point x="399" y="1160"/>
      <point x="226" y="1061"/>
      <point x="159" y="996" type="curve"/>
      <point x="206" y="884" type="line"/>
      <point x="295" y="949"/>
      <point x="407" y="1019"/>
      <point x="561" y="1019" type="curve" smooth="yes"/>
      <point x="695" y="1019"/>
      <point x="771" y="949"/>
      <point x="771" y="851" type="curve" smooth="yes"/>
      <point x="771" y="652"/>
      <point x="543" y="549"/>
      <point x="288" y="487" type="curve"/>
      <point x="275" y="356" type="line"/>
      <point x="300" y="364"/>
      <point x="426" y="395"/>
      <point x="453" y="407" type="curve"/>
      <point x="671" y="405"/>
      <point x="752" y="303"/>
      <point x="752" y="163" type="curve" smooth="yes"/>
      <point x="752" y="-72"/>
      <point x="481" y="-210"/>
      <point x="199" y="-210" type="curve" smooth="yes"/>
      <point x="161" y="-210"/>
      <point x="106" y="-206"/>
    </contour>
  </outline>
</glyph>
<glyph name="six" format="1">
  <advance width="1244"/>
  <unicode hex="0036"/>
  <outline>
    <contour>
      <point x="149" y="488" type="curve" smooth="yes"/>
      <point x="149" y="215"/>
      <point x="279" y="-16"/>
      <point x="552" y="-16" type="curve" smooth="yes"/>
      <point x="904" y="-16"/>
      <point x="1098" y="313"/>
      <point x="1098" y="605" type="curve" smooth="yes"/>
      <point x="1098" y="799"/>
      <point x="1003" y="986"/>
      <point x="742" y="986" type="curve" smooth="yes"/>
      <point x="555" y="986"/>
      <point x="434" y="903"/>
      <point x="368" y="844" type="curve"/>
      <point x="467" y="1133"/>
      <point x="711" y="1373"/>
      <point x="1029" y="1484" type="curve"/>
      <point x="996" y="1572" type="line"/>
      <point x="504" y="1435"/>
      <point x="149" y="994"/>
    </contour>
    <contour>
      <point x="300" y="474" type="curve" smooth="yes"/>
      <point x="300" y="561"/>
      <point x="310" y="626"/>
      <point x="328" y="702" type="curve"/>
      <point x="374" y="751"/>
      <point x="495" y="870"/>
      <point x="706" y="870" type="curve" smooth="yes"/>
      <point x="851" y="870"/>
      <point x="947" y="772"/>
      <point x="947" y="584" type="curve" smooth="yes"/>
      <point x="947" y="382"/>
      <point x="838" y="90"/>
      <point x="586" y="90" type="curve" smooth="yes"/>
      <point x="393" y="90"/>
      <point x="300" y="249"/>
    </contour>
  </outline>
</glyph>
<glyph name="B" format="1">
  <advance width="1240"/>
  <unicode hex="0042"/>
  <outline>
    <contour>
      <point x="191" y="0" type="line"/>
      <point x="262" y="0"/>
      <point x="381" y="-14"/>
      <point x="458" y="-14" type="curve" smooth="yes"/>
      <point x="844" y="-14"/>
      <point x="1137" y="127"/>
      <point x="1131" y="490" type="curve" smooth="yes"/>
      <point x="1128" y="663"/>
      <point x="987" y="781"/>
      <point x="819" y="800" type="curve"/>
      <point x="1015" y="855"/>
      <point x="1143" y="1000"/>
      <point x="1139" y="1218" type="curve" smooth="yes"/>
      <point x="1136" y="1387"/>
      <point x="1037" y="1546"/>
      <point x="691" y="1546" type="curve" smooth="yes"/>
      <point x="584" y="1546"/>
      <point x="480" y="1530"/>
      <point x="382" y="1530" type="curve"/>
      <point x="443" y="1427" type="line"/>
      <point x="503" y="1435"/>
      <point x="625" y="1441"/>
      <point x="656" y="1441" type="curve" smooth="yes"/>
      <point x="897" y="1441"/>
      <point x="986" y="1353"/>
      <point x="988" y="1201" type="curve" smooth="yes"/>
      <point x="991" y="972"/>
      <point x="822" y="847"/>
      <point x="612" y="847" type="curve" smooth="yes"/>
      <point x="537" y="847"/>
      <point x="442" y="844"/>
      <point x="370" y="848" type="curve"/>
      <point x="308" y="791" type="line"/>
      <point x="358" y="733" type="line"/>
      <point x="410" y="736"/>
      <point x="482" y="739"/>
      <point x="626" y="739" type="curve" smooth="yes"/>
      <point x="831" y="739"/>
      <point x="968" y="651"/>
      <point x="971" y="472" type="curve" smooth="yes"/>
      <point x="974" y="189"/>
      <point x="760" y="94"/>
      <point x="491" y="94" type="curve" smooth="yes"/>
      <point x="447" y="94"/>
      <point x="305" y="103"/>
      <point x="277" y="117" type="curve"/>
    </contour>
    <contour>
      <point x="121" y="0" type="line"/>
      <point x="272" y="0" type="line"/>
      <point x="464" y="1530" type="line"/>
      <point x="314" y="1530" type="line"/>
    </contour>
    <contour>
      <point x="669" y="-168" type="move" name="btm"/>
    </contour>
    <contour>
      <point x="669" y="1700" type="move" name="top"/>
    </contour>
  </outline>
</glyph>
<glyph name="D" format="1">
  <advance width="1377"/>
  <unicode hex="0044"/>
  <outline>
    <contour>
      <point x="198" y="0" type="line"/>
      <point x="254" y="0"/>
      <point x="364" y="-5"/>
      <point x="409" y="-9" type="curve" smooth="yes"/>
      <point x="440" y="-12"/>
      <point x="494" y="-15"/>
      <point x="522" y="-16" type="curve" smooth="yes"/>
      <point x="992" y="-28"/>
      <point x="1305" y="393"/>
      <point x="1298" y="922" type="curve" smooth="yes"/>
      <point x="1293" y="1293"/>
      <point x="1129" y="1546"/>
      <point x="722" y="1546" type="curve" smooth="yes"/>
      <point x="616" y="1546"/>
      <point x="485" y="1530"/>
      <point x="386" y="1530" type="curve"/>
      <point x="443" y="1414" type="line"/>
      <point x="507" y="1423"/>
      <point x="608" y="1434"/>
      <point x="679" y="1434" type="curve" smooth="yes"/>
      <point x="1009" y="1434"/>
      <point x="1137" y="1274"/>
      <point x="1142" y="910" type="curve" smooth="yes"/>
      <point x="1146" y="510"/>
      <point x="950" y="108"/>
      <point x="558" y="99" type="curve" smooth="yes"/>
      <point x="474" y="97"/>
      <point x="364" y="111"/>
      <point x="283" y="126" type="curve"/>
    </contour>
    <contour>
      <point x="121" y="0" type="line"/>
      <point x="271" y="0" type="line"/>
      <point x="464" y="1530" type="line"/>
      <point x="314" y="1530" type="line"/>
    </contour>
    <contour>
      <point x="796" y="-168" type="move" name="btm"/>
    </contour>
    <contour>
      <point x="771" y="1700" type="move" name="top"/>
    </contour>
  </outline>
</glyph>
<glyph name="E" format="1">
  <advance width="1138"/>
  <unicode hex="0045"/>
  <outline>
    <contour>
      <point x="121" y="0" type="line"/>
      <point x="1011" y="0" type="line"/>
      <point x="1022" y="127" type="line"/>
      <point x="285" y="114" type="line"/>
      <point x="363" y="728" type="line"/>
      <point x="842" y="717" type="line"/>
      <point x="851" y="844" type="line"/>
      <point x="377" y="838" type="line"/>
      <point x="450" y="1417" type="line"/>
      <point x="1064" y="1410" type="line"/>
      <point x="1070" y="1530" type="line"/>
      <point x="314" y="1530" type="line"/>
    </contour>
    <contour>
      <point x="642" y="-168" type="move" name="btm"/>
    </contour>
    <contour>
      <point x="709" y="1700" type="move" name="top"/>
    </contour>
  </outline>
</glyph>
<glyph name="F" format="1">
  <advance width="1057"/>
  <unicode hex="0046"/>
  <outline>
    <contour>
      <point x="121" y="0" type="line"/>
      <point x="271" y="0" type="line"/>
      <point x="363" y="725" type="line"/>
      <point x="875" y="713" type="line"/>
      <point x="885" y="843" type="line"/>
      <point x="377" y="835" type="line"/>
      <point x="450" y="1417" type="line"/>
      <point x="1082" y="1410" type="line"/>
      <point x="1093" y="1530" type="line"/>
      <point x="314" y="1530" type="line"/>
    </contour>
    <contour>
      <point x="561" y="-168" type="move" name="btm"/>
    </contour>
    <contour>
      <point x="699" y="1700" type="move" name="top"/>
    </contour>
  </outline>
</glyph>
<glyph name="H" format="1">
  <advance width="1410"/>
  <unicode hex="0048"/>
  <outline>
    <contour>
      <point x="121" y="0" type="line"/>
      <point x="271" y="0" type="line"/>
      <point x="464" y="1530" type="line"/>
      <point x="314" y="1530" type="line"/>
    </contour>
    <contour>
      <point x="997" y="0" type="line"/>
      <point x="1148" y="0" type="line"/>
      <point x="1340" y="1530" type="line"/>
      <point x="1190" y="1530" type="line"/>
    </contour>
    <contour>
      <point x="288" y="714" type="line"/>
      <point x="1175" y="714" type="line"/>
      <point x="1187" y="829" type="line"/>
      <point x="299" y="829" type="line"/>
    </contour>
    <contour>
      <point x="804" y="-168" type="move" name="btm"/>
    </contour>
    <contour>
      <point x="831" y="1700" type="move" name="top"/>
    </contour>
  </outline>
</glyph>
<glyph name="Z" format="1">
  <advance width="1157"/>
  <unicode hex="005A"/>
  <outline>
    <contour>
      <point x="36" y="0" type="line"/>
      <point x="1006" y="0" type="line"/>
      <point x="1027" y="130" type="line"/>
      <point x="215" y="121" type="line"/>
      <point x="339" y="269" type="line"/>
      <point x="1182" y="1464" type="line"/>
      <point x="1163" y="1530" type="line"/>
      <point x="260" y="1530" type="line"/>
      <point x="244" y="1402" type="line"/>
      <point x="988" y="1413" type="line"/>
      <point x="837" y="1227" type="line"/>
      <point x="15" y="70" type="line"/>
    </contour>
    <contour>
      <point x="560" y="-170" type="move" name="btm"/>
    </contour>
    <contour>
      <point x="746" y="1700" type="move" name="top"/>
    </contour>
  </outline>
</glyph>
<glyph name="bracketleft" format="1">
  <advance width="854"/>
  <unicode hex="005B"/>
  <outline>
    <contour>
      <point x="197" y="21" type="curve"/>
      <point x="195" y="-10"/>
      <point x="194" y="-37"/>
      <point x="194" y="-64" type="curve" smooth="yes"/>
      <point x="194" y="-147"/>
      <point x="229" y="-172"/>
      <point x="324" y="-172" type="curve" smooth="yes"/>
      <point x="420" y="-172"/>
      <point x="535" y="-155"/>
      <point x="620" y="-136" type="curve"/>
      <point x="622" y="-115"/>
      <point x="625" y="-91"/>
      <point x="627" y="-70" type="curve"/>
      <point x="563" y="-70"/>
      <point x="396" y="-68"/>
      <point x="331" y="-68" type="curve"/>
      <point x="561" y="1607" type="line"/>
      <point x="853" y="1607" type="line"/>
      <point x="862" y="1673" type="line"/>
      <point x="840" y="1674"/>
      <point x="679" y="1710"/>
      <point x="583" y="1710" type="curve" smooth="yes"/>
      <point x="462" y="1710"/>
      <point x="426" y="1665"/>
      <point x="407" y="1519" type="curve" smooth="yes"/>
      <point x="363" y="1182"/>
      <point x="213" y="293"/>
    </contour>
  </outline>
</glyph>
<glyph name="asciicircum" format="1">
  <advance width="1358"/>
  <unicode hex="005E"/>
  <outline>
    <contour>
      <point x="186" y="510" type="line"/>
      <point x="321" y="510" type="line"/>
      <point x="767" y="1385" type="line"/>
      <point x="993" y="510" type="line"/>
      <point x="1124" y="510" type="line"/>
      <point x="857" y="1530" type="line"/>
      <point x="704" y="1530" type="line"/>
    </contour>
  </outline>
</glyph>
<glyph name="e" format="1">
  <advance width="1031"/>
  <unicode hex="0065"/>
  <outline>
    <contour>
      <point x="90" y="441" type="curve" smooth="yes"/>
      <point x="84" y="216"/>
      <point x="190" y="-16"/>
      <point x="479" y="-16" type="curve" smooth="yes"/>
      <point x="673" y="-16"/>
      <point x="830" y="107"/>
      <point x="887" y="186" type="curve"/>
      <point x="844" y="272" type="line"/>
      <point x="730" y="157"/>
      <point x="605" y="102"/>
      <point x="496" y="102" type="curve" smooth="yes"/>
      <point x="284" y="102"/>
      <point x="239" y="288"/>
      <point x="247" y="443" type="curve"/>
      <point x="478" y="455"/>
      <point x="959" y="575"/>
      <point x="959" y="906" type="curve" smooth="yes"/>
      <point x="959" y="1047"/>
      <point x="870" y="1156"/>
      <point x="680" y="1156" type="curve" smooth="yes"/>
      <point x="337" y="1156"/>
      <point x="100" y="839"/>
    </contour>
    <contour>
      <point x="252" y="550" type="curve"/>
      <point x="273" y="778"/>
      <point x="426" y="1043"/>
      <point x="648" y="1043" type="curve" smooth="yes"/>
      <point x="747" y="1043"/>
      <point x="810" y="997"/>
      <point x="810" y="893" type="curve" smooth="yes"/>
      <point x="810" y="683"/>
      <point x="477" y="557"/>
    </contour>
    <contour>
      <point x="771" y="66" type="move" name="btm"/>
    </contour>
    <contour>
      <point x="646" y="1258" type="move" name="top"/>
    </contour>
  </outline>
</glyph>
<glyph name="k" format="1">
  <advance width="1023"/>
  <unicode hex="006B"/>
  <outline>
    <contour>
      <point x="375" y="628" type="line"/>
      <point x="794" y="3" type="line"/>
      <point x="967" y="3" type="line"/>
      <point x="498" y="676" type="line"/>
    </contour>
    <contour>
      <point x="501" y="585" type="line"/>
      <point x="581" y="617"/>
      <point x="781" y="727"/>
      <point x="891" y="876" type="curve" smooth="yes"/>
      <point x="956" y="963"/>
      <point x="995" y="1049"/>
      <point x="1003" y="1140" type="curve"/>
      <point x="860" y="1140" type="line"/>
      <point x="828" y="1039"/>
      <point x="777" y="954"/>
      <point x="709" y="876" type="curve" smooth="yes"/>
      <point x="621" y="771"/>
      <point x="480" y="689"/>
      <point x="375" y="629" type="curve"/>
    </contour>
    <contour>
      <point x="97" y="0" type="line"/>
      <point x="246" y="0" type="line"/>
      <point x="453" y="1637" type="line"/>
      <point x="305" y="1637" type="line"/>
    </contour>
    <contour>
      <point x="490" y="-167" type="move" name="btm"/>
    </contour>
    <contour>
      <point x="580" y="1258" type="move" name="top"/>
    </contour>
  </outline>
</glyph>
<glyph name="m" format="1">
  <advance width="1782"/>
  <unicode hex="006D"/>
  <outline>
    <contour>
      <point x="289" y="635" type="line"/>
      <point x="366" y="811"/>
      <point x="587" y="1019"/>
      <point x="731" y="1019" type="curve" smooth="yes"/>
      <point x="831" y="1019"/>
      <point x="866" y="972"/>
      <point x="866" y="863" type="curve" smooth="yes"/>
      <point x="866" y="786"/>
      <point x="846" y="653"/>
      <point x="825" y="512" type="curve" smooth="yes"/>
      <point x="808" y="396"/>
      <point x="766" y="130"/>
      <point x="749" y="3" type="curve"/>
      <point x="898" y="3" type="line"/>
      <point x="917" y="128"/>
      <point x="959" y="396"/>
      <point x="975" y="513" type="curve" smooth="yes"/>
      <point x="997" y="660"/>
      <point x="1017" y="800"/>
      <point x="1018" y="872" type="curve" smooth="yes"/>
      <point x="1019" y="1063"/>
      <point x="952" y="1156"/>
      <point x="792" y="1156" type="curve" smooth="yes"/>
      <point x="583" y="1156"/>
      <point x="361" y="937"/>
      <point x="273" y="741" type="curve" smooth="yes"/>
      <point x="272" y="739"/>
      <point x="268" y="641"/>
      <point x="267" y="640" type="curve"/>
    </contour>
    <contour>
      <point x="931" y="668" type="line"/>
      <point x="1013" y="833"/>
      <point x="1224" y="1018"/>
      <point x="1361" y="1018" type="curve" smooth="yes"/>
      <point x="1462" y="1018"/>
      <point x="1497" y="971"/>
      <point x="1497" y="863" type="curve" smooth="yes"/>
      <point x="1497" y="781"/>
      <point x="1479" y="652"/>
      <point x="1457" y="512" type="curve" smooth="yes"/>
      <point x="1440" y="396"/>
      <point x="1397" y="130"/>
      <point x="1380" y="3" type="curve"/>
      <point x="1530" y="3" type="line"/>
      <point x="1548" y="128"/>
      <point x="1591" y="395"/>
      <point x="1607" y="512" type="curve" smooth="yes"/>
      <point x="1630" y="659"/>
      <point x="1649" y="801"/>
      <point x="1649" y="872" type="curve" smooth="yes"/>
      <point x="1649" y="1079"/>
      <point x="1571" y="1156"/>
      <point x="1421" y="1156" type="curve" smooth="yes"/>
      <point x="1216" y="1156"/>
      <point x="1003" y="954"/>
      <point x="914" y="771" type="curve" smooth="yes"/>
      <point x="911" y="672" type="line"/>
    </contour>
    <contour>
      <point x="93" y="3" type="line"/>
      <point x="241" y="3" type="line"/>
      <point x="359" y="871" type="line"/>
      <point x="389" y="1140" type="line"/>
      <point x="248" y="1140" type="line"/>
    </contour>
    <contour>
      <point x="991" y="1258" type="move" name="top"/>
    </contour>
  </outline>
</glyph>
<glyph name="y" format="1">
  <advance width="1048"/>
  <unicode hex="0079"/>
  <outline>
    <contour>
      <point x="396" y="299" type="line"/>
      <point x="287" y="1140" type="line"/>
      <point x="123" y="1140" type="line"/>
      <point x="250" y="299" type="line"/>
      <point x="312" y="-56" type="line"/>
      <point x="447" y="-56" type="line"/>
    </contour>
    <contour>
      <point x="422" y="-31" type="curve"/>
      <point x="245" y="-297"/>
      <point x="114" y="-380"/>
      <point x="-25" y="-380" type="curve" smooth="yes"/>
      <point x="-101" y="-380"/>
      <point x="-137" y="-357"/>
      <point x="-157" y="-348" type="curve"/>
      <point x="-200" y="-472" type="line"/>
      <point x="-163" y="-486"/>
      <point x="-102" y="-502"/>
      <point x="-50" y="-502" type="curve" smooth="yes"/>
      <point x="208" y="-502"/>
      <point x="357" y="-313"/>
      <point x="454" y="-189" type="curve" smooth="yes"/>
      <point x="542" y="-81"/>
      <point x="645" y="82"/>
      <point x="717" y="216" type="curve" smooth="yes"/>
      <point x="844" y="452"/>
      <point x="970" y="750"/>
      <point x="984" y="1006" type="curve" smooth="yes"/>
      <point x="987" y="1062"/>
      <point x="986" y="1105"/>
      <point x="982" y="1140" type="curve"/>
      <point x="835" y="1140" type="line"/>
      <point x="836" y="1102"/>
      <point x="836" y="1060"/>
      <point x="833" y="1005" type="curve" smooth="yes"/>
      <point x="814" y="757"/>
      <point x="726" y="483"/>
      <point x="570" y="223" type="curve"/>
      <point x="550" y="187"/>
      <point x="441" y="0"/>
    </contour>
    <contour>
      <point x="568" y="1258" type="move" name="top"/>
    </contour>
  </outline>
</glyph>
<glyph name="cent" format="1">
  <advance width="1057"/>
  <unicode hex="00A2"/>
  <outline>
    <contour>
      <point x="612" y="1080" type="line"/>
      <point x="726" y="1080" type="line"/>
      <point x="794" y="1358" type="line"/>
      <point x="678" y="1358" type="line"/>
    </contour>
    <contour>
      <point x="429" y="72" type="line"/>
      <point x="375" y="-215" type="line"/>
      <point x="490" y="-215" type="line"/>
      <point x="544" y="72" type="line"/>
    </contour>
    <component base="c" xOffset="51"/>
  </outline>
</glyph>
<glyph name="section" format="1">
  <advance width="1194"/>
  <unicode hex="00A7"/>
  <outline>
    <contour>
      <point x="775" y="405" type="curve"/>
      <point x="895" y="339" type="line"/>
      <point x="1015" y="413"/>
      <point x="1093" y="513"/>
      <point x="1091" y="666" type="curve" smooth="yes"/>
      <point x="1088" y="852"/>
      <point x="910" y="960"/>
      <point x="736" y="1038" type="curve" smooth="yes"/>
      <point x="533" y="1132"/>
      <point x="393" y="1188"/>
      <point x="400" y="1358" type="curve" smooth="yes"/>
      <point x="406" y="1489"/>
      <point x="560" y="1557"/>
      <point x="728" y="1557" type="curve" smooth="yes"/>
      <point x="832" y="1557"/>
      <point x="985" y="1524"/>
      <point x="1042" y="1452" type="curve"/>
      <point x="1090" y="1568" type="line"/>
      <point x="1040" y="1611"/>
      <point x="930" y="1673"/>
      <point x="738" y="1673" type="curve" smooth="yes"/>
      <point x="469" y="1673"/>
      <point x="239" y="1560"/>
      <point x="242" y="1343" type="curve" smooth="yes"/>
      <point x="246" y="1117"/>
      <point x="456" y="1002"/>
      <point x="649" y="919" type="curve" smooth="yes"/>
      <point x="861" y="825"/>
      <point x="934" y="746"/>
      <point x="934" y="639" type="curve" smooth="yes"/>
      <point x="934" y="513"/>
      <point x="855" y="439"/>
    </contour>
    <contour>
      <point x="171" y="51" type="curve"/>
      <point x="128" y="-65" type="line"/>
      <point x="173" y="-110"/>
      <point x="332" y="-186"/>
      <point x="508" y="-186" type="curve" smooth="yes"/>
      <point x="802" y="-186"/>
      <point x="1049" y="-61"/>
      <point x="1044" y="189" type="curve" smooth="yes"/>
      <point x="1041" y="367"/>
      <point x="849" y="454"/>
      <point x="669" y="524" type="curve" smooth="yes"/>
      <point x="476" y="612"/>
      <point x="353" y="670"/>
      <point x="361" y="834" type="curve" smooth="yes"/>
      <point x="365" y="932"/>
      <point x="450" y="1003"/>
      <point x="556" y="1027" type="curve"/>
      <point x="437" y="1087" type="line"/>
      <point x="296" y="1033"/>
      <point x="200" y="950"/>
      <point x="202" y="810" type="curve" smooth="yes"/>
      <point x="205" y="593"/>
      <point x="392" y="478"/>
      <point x="579" y="404" type="curve" smooth="yes"/>
      <point x="775" y="328"/>
      <point x="888" y="262"/>
      <point x="888" y="154" type="curve" smooth="yes"/>
      <point x="888" y="-17"/>
      <point x="695" y="-67"/>
      <point x="510" y="-67" type="curve" smooth="yes"/>
      <point x="370" y="-67"/>
      <point x="218" y="-5"/>
    </contour>
  </outline>
</glyph>
<glyph name="copyright" format="1">
  <advance width="2061"/>
  <unicode hex="00A9"/>
  <outline>
    <contour>
      <point x="306" y="938" type="curve" smooth="yes"/>
      <point x="306" y="1349"/>
      <point x="620" y="1686"/>
      <point x="1036" y="1686" type="curve" smooth="yes"/>
      <point x="1453" y="1686"/>
      <point x="1767" y="1349"/>
      <point x="1767" y="938" type="curve" smooth="yes"/>
      <point x="1767" y="525"/>
      <point x="1452" y="190"/>
      <point x="1036" y="190" type="curve" smooth="yes"/>
      <point x="621" y="190"/>
      <point x="306" y="525"/>
    </contour>
    <contour>
      <point x="607" y="932" type="curve" smooth="yes"/>
      <point x="607" y="686"/>
      <point x="765" y="467"/>
      <point x="1032" y="467" type="curve" smooth="yes"/>
      <point x="1162" y="467"/>
      <point x="1280" y="508"/>
      <point x="1343" y="560" type="curve"/>
      <point x="1307" y="655" type="line"/>
      <point x="1249" y="620"/>
      <point x="1155" y="588"/>
      <point x="1052" y="588" type="curve" smooth="yes"/>
      <point x="883" y="588"/>
      <point x="755" y="710"/>
      <point x="755" y="943" type="curve" smooth="yes"/>
      <point x="755" y="1136"/>
      <point x="868" y="1292"/>
      <point x="1071" y="1292" type="curve" smooth="yes"/>
      <point x="1166" y="1292"/>
      <point x="1240" y="1268"/>
      <point x="1290" y="1237" type="curve"/>
      <point x="1317" y="1362" type="line"/>
      <point x="1278" y="1381"/>
      <point x="1200" y="1413"/>
      <point x="1085" y="1413" type="curve" smooth="yes"/>
      <point x="776" y="1413"/>
      <point x="606" y="1202"/>
    </contour>
    <contour>
      <point x="196" y="938" type="curve" smooth="yes"/>
      <point x="196" y="469"/>
      <point x="569" y="90"/>
      <point x="1036" y="90" type="curve" smooth="yes"/>
      <point x="1504" y="90"/>
      <point x="1877" y="469"/>
      <point x="1877" y="938" type="curve" smooth="yes"/>
      <point x="1877" y="1407"/>
      <point x="1505" y="1783"/>
      <point x="1036" y="1783" type="curve" smooth="yes"/>
      <point x="568" y="1783"/>
      <point x="196" y="1407"/>
    </contour>
  </outline>
</glyph>
<glyph name="macron" format="1">
  <advance width="614"/>
  <unicode hex="00AF"/>
  <outline>
    <contour>
      <point x="46" y="1434" type="line"/>
      <point x="555" y="1434" type="line"/>
      <point x="560" y="1548" type="line"/>
      <point x="50" y="1548" type="line"/>
    </contour>
    <contour>
      <point x="317" y="1255" type="move" name="_top"/>
    </contour>
  </outline>
</glyph>
<glyph name="multiply" format="1">
  <advance width="1370"/>
  <unicode hex="00D7"/>
  <outline>
    <contour>
      <point x="323" y="328" type="line"/>
      <point x="705" y="688" type="line"/>
      <point x="999" y="329" type="line"/>
      <point x="1100" y="424" type="line"/>
      <point x="790" y="764" type="line"/>
      <point x="1183" y="1110" type="line"/>
      <point x="1104" y="1204" type="line"/>
      <point x="722" y="841" type="line"/>
      <point x="429" y="1199" type="line"/>
      <point x="328" y="1104" type="line"/>
      <point x="637" y="765" type="line"/>
      <point x="244" y="423" type="line"/>
    </contour>
  </outline>
</glyph>
<glyph name="lslash" format="1">
  <advance width="563"/>
  <unicode hex="0142"/>
  <outline>
    <contour>
      <point x="61" y="837" type="line"/>
      <point x="595" y="1048" type="line"/>
      <point x="595" y="1161" type="line"/>
      <point x="61" y="942" type="line"/>
    </contour>
    <component base="l"/>
  </outline>
</glyph>
<glyph name="tbar" format="1">
  <advance width="739"/>
  <unicode hex="0167"/>
  <outline>
    <contour>
      <point x="83" y="637" type="line"/>
      <point x="665" y="637" type="line"/>
      <point x="677" y="737" type="line"/>
      <point x="95" y="737" type="line"/>
    </contour>
    <component base="t"/>
  </outline>
</glyph>
<glyph name="jdotless" format="1">
  <advance width="576"/>
  <unicode hex="0237"/>
  <outline>
    <contour>
      <point x="149" y="59" type="line"/>
      <point x="114" y="-207"/>
      <point x="61" y="-411"/>
      <point x="-129" y="-411" type="curve" smooth="yes"/>
      <point x="-157" y="-411"/>
      <point x="-191" y="-401"/>
      <point x="-204" y="-391" type="curve"/>
      <point x="-244" y="-477" type="line"/>
      <point x="-219" y="-496"/>
      <point x="-173" y="-515"/>
      <point x="-108" y="-515" type="curve" smooth="yes"/>
      <point x="109" y="-515"/>
      <point x="247" y="-323"/>
      <point x="291" y="5" type="curve" smooth="yes"/>
      <point x="444" y="1144" type="line"/>
      <point x="295" y="1144" type="line"/>
    </contour>
    <contour>
      <point x="386" y="1258" type="move" name="top"/>
    </contour>
  </outline>
</glyph>
<glyph name="ring" format="1">
  <advance width="723"/>
  <unicode hex="02DA"/>
  <outline>
    <contour>
      <point x="378" y="1258" type="curve" smooth="yes"/>
      <point x="551" y="1258"/>
      <point x="711" y="1345"/>
      <point x="711" y="1531" type="curve" smooth="yes"/>
      <point x="711" y="1689"/>
      <point x="607" y="1781"/>
      <point x="441" y="1781" type="curve" smooth="yes"/>
      <point x="283" y="1781"/>
      <point x="99" y="1693"/>
      <point x="99" y="1505" type="curve" smooth="yes"/>
      <point x="99" y="1350"/>
      <point x="200" y="1258"/>
    </contour>
    <contour>
      <point x="384" y="1341" type="curve" smooth="yes"/>
      <point x="277" y="1341"/>
      <point x="206" y="1409"/>
      <point x="206" y="1500" type="curve" smooth="yes"/>
      <point x="206" y="1650"/>
      <point x="326" y="1697"/>
      <point x="429" y="1697" type="curve" smooth="yes"/>
      <point x="535" y="1697"/>
      <point x="602" y="1636"/>
      <point x="602" y="1544" type="curve" smooth="yes"/>
      <point x="602" y="1387"/>
      <point x="496" y="1341"/>
    </contour>
    <contour>
      <point x="357" y="1255" type="move" name="_top"/>
    </contour>
  </outline>
</glyph>
<glyph name="quotereversed" format="1">
  <advance width="651"/>
  <unicode hex="201B"/>
  <outline>
    <contour>
      <point x="384" y="892" type="curve"/>
      <point x="462" y="959" type="line"/>
      <point x="465" y="975" type="line"/>
      <point x="398" y="1034"/>
      <point x="310" y="1189"/>
      <point x="355" y="1380" type="curve" smooth="yes"/>
      <point x="374" y="1458"/>
      <point x="428" y="1543"/>
      <point x="508" y="1575" type="curve"/>
      <point x="512" y="1607" type="line"/>
      <point x="446" y="1715" type="line"/>
      <point x="356" y="1703"/>
      <point x="240" y="1589"/>
      <point x="204" y="1452" type="curve" smooth="yes"/>
      <point x="135" y="1175"/>
      <point x="276" y="985"/>
    </contour>
  </outline>
</glyph>
<glyph name="perthousand" format="1">
  <advance width="2701"/>
  <unicode hex="2030"/>
  <outline>
    <contour>
      <point x="1827" y="374" type="curve" smooth="yes"/>
      <point x="1827" y="198"/>
      <point x="1925" y="64"/>
      <point x="2108" y="64" type="curve" smooth="yes"/>
      <point x="2360" y="64"/>
      <point x="2517" y="285"/>
      <point x="2517" y="504" type="curve" smooth="yes"/>
      <point x="2517" y="676"/>
      <point x="2436" y="799"/>
      <point x="2238" y="799" type="curve" smooth="yes"/>
      <point x="1999" y="799"/>
      <point x="1827" y="586"/>
    </contour>
    <contour>
      <point x="1950" y="375" type="curve" smooth="yes"/>
      <point x="1950" y="516"/>
      <point x="2048" y="705"/>
      <point x="2217" y="705" type="curve" smooth="yes"/>
      <point x="2329" y="705"/>
      <point x="2387" y="623"/>
      <point x="2387" y="498" type="curve" smooth="yes"/>
      <point x="2387" y="359"/>
      <point x="2300" y="158"/>
      <point x="2130" y="158" type="curve" smooth="yes"/>
      <point x="2015" y="158"/>
      <point x="1950" y="248"/>
    </contour>
    <component base="percent"/>
  </outline>
</glyph>
<glyph name="liraTurkish" format="1">
  <advance width="1464"/>
  <unicode hex="20BA"/>
  <outline>
    <contour>
      <point x="1241" y="719" type="curve"/>
      <point x="1399" y="719" type="line"/>
      <point x="1392" y="674" type="line"/>
      <point x="1336" y="253"/>
      <point x="958" y="0"/>
      <point x="532" y="0" type="curve" smooth="yes"/>
      <point x="376" y="0" type="line"/>
      <point x="453" y="589" type="line"/>
      <point x="153" y="466" type="line"/>
      <point x="170" y="594" type="line"/>
      <point x="470" y="717" type="line"/>
      <point x="504" y="977" type="line"/>
      <point x="195" y="849" type="line"/>
      <point x="214" y="984" type="line"/>
      <point x="522" y="1111" type="line"/>
      <point x="578" y="1538" type="line"/>
      <point x="734" y="1538" type="line"/>
      <point x="687" y="1179" type="line"/>
      <point x="1218" y="1399" type="line"/>
      <point x="1199" y="1264" type="line"/>
      <point x="669" y="1045" type="line"/>
      <point x="635" y="785" type="line"/>
      <point x="1149" y="996" type="line"/>
      <point x="1131" y="867" type="line"/>
      <point x="618" y="656" type="line"/>
      <point x="550" y="134" type="line"/>
      <point x="872" y="134"/>
      <point x="1188" y="309"/>
    </contour>
  </outline>
</glyph>
<glyph name="literSign" format="1">
  <advance width="1206"/>
  <unicode hex="2113"/>
  <outline>
    <contour>
      <point x="172" y="48" type="line"/>
      <point x="657" y="425"/>
      <point x="1065" y="954"/>
      <point x="1065" y="1453" type="curve" smooth="yes"/>
      <point x="1065" y="1586"/>
      <point x="998" y="1680"/>
      <point x="884" y="1680" type="curve" smooth="yes"/>
      <point x="543" y="1680"/>
      <point x="283" y="1059"/>
      <point x="283" y="512" type="curve" smooth="yes"/>
      <point x="283" y="178"/>
      <point x="403" y="-16"/>
      <point x="590" y="-16" type="curve" smooth="yes"/>
      <point x="822" y="-16"/>
      <point x="945" y="189"/>
      <point x="992" y="411" type="curve"/>
      <point x="868" y="430" type="line"/>
      <point x="833" y="214"/>
      <point x="721" y="107"/>
      <point x="604" y="107" type="curve" smooth="yes"/>
      <point x="499" y="107"/>
      <point x="413" y="223"/>
      <point x="413" y="513" type="curve" smooth="yes"/>
      <point x="413" y="964"/>
      <point x="620" y="1545"/>
      <point x="847" y="1545" type="curve" smooth="yes"/>
      <point x="903" y="1545"/>
      <point x="936" y="1491"/>
      <point x="936" y="1428" type="curve" smooth="yes"/>
      <point x="936" y="1029"/>
      <point x="621" y="570"/>
      <point x="76" y="131" type="curve"/>
    </contour>
    <contour>
      <point x="424" y="-170" type="move" name="btm"/>
    </contour>
    <contour>
      <point x="427" y="1700" type="move" name="top"/>
    </contour>
  </outline>
</glyph>
<glyph name="product" format="1">
  <advance width="1609"/>
  <unicode hex="220F"/>
  <outline>
    <contour>
      <point x="335" y="-170" type="line"/>
      <point x="505" y="-170" type="line"/>
      <point x="505" y="1396" type="line"/>
      <point x="1142" y="1396" type="line"/>
      <point x="1142" y="-170" type="line"/>
      <point x="1312" y="-170" type="line"/>
      <point x="1312" y="1396" type="line"/>
      <point x="1508" y="1396" type="line"/>
      <point x="1508" y="1522" type="line"/>
      <point x="139" y="1522" type="line"/>
      <point x="139" y="1396" type="line"/>
      <point x="335" y="1396" type="line"/>
    </contour>
  </outline>
</glyph>
<glyph name="summation" format="1">
  <advance width="1529"/>
  <unicode hex="2211"/>
  <outline>
    <contour>
      <point x="227" y="-128" type="line"/>
      <point x="247" y="-170" type="line"/>
      <point x="1302" y="-170" type="line"/>
      <point x="1302" y="-51" type="line"/>
      <point x="459" y="-51" type="line"/>
      <point x="964" y="682" type="line"/>
      <point x="447" y="1396" type="line"/>
      <point x="1287" y="1396" type="line"/>
      <point x="1287" y="1522" type="line"/>
      <point x="251" y="1522" type="line"/>
      <point x="228" y="1459" type="line"/>
      <point x="788" y="678" type="line"/>
    </contour>
  </outline>
</glyph>
<glyph name="divisionslash" format="1">
  <advance width="854"/>
  <unicode hex="2215"/>
  <outline>
    <contour>
      <point x="57" y="-362" type="line"/>
      <point x="920" y="1597" type="line"/>
      <point x="787" y="1597" type="line"/>
      <point x="-75" y="-362" type="line"/>
    </contour>
  </outline>
</glyph>
<glyph name="infinity" format="1">
  <advance width="1804"/>
  <unicode hex="221E"/>
  <outline>
    <contour>
      <point x="484" y="230" type="curve" smooth="yes"/>
      <point x="666" y="232"/>
      <point x="814" y="368"/>
      <point x="902" y="502" type="curve"/>
      <point x="989" y="365"/>
      <point x="1102" y="229"/>
      <point x="1299" y="229" type="curve" smooth="yes"/>
      <point x="1561" y="229"/>
      <point x="1731" y="390"/>
      <point x="1731" y="638" type="curve" smooth="yes"/>
      <point x="1731" y="827"/>
      <point x="1606" y="1008"/>
      <point x="1325" y="1004" type="curve" smooth="yes"/>
      <point x="1146" y="1001"/>
      <point x="992" y="860"/>
      <point x="905" y="726" type="curve"/>
      <point x="815" y="865"/>
      <point x="696" y="1004"/>
      <point x="494" y="1004" type="curve" smooth="yes"/>
      <point x="265" y="1004"/>
      <point x="74" y="865"/>
      <point x="74" y="600" type="curve" smooth="yes"/>
      <point x="74" y="405"/>
      <point x="224" y="226"/>
    </contour>
    <contour>
      <point x="982" y="622" type="curve"/>
      <point x="1051" y="737"/>
      <point x="1169" y="879"/>
      <point x="1308" y="879" type="curve" smooth="yes"/>
      <point x="1497" y="879"/>
      <point x="1580" y="759"/>
      <point x="1580" y="624" type="curve" smooth="yes"/>
      <point x="1580" y="491"/>
      <point x="1494" y="345"/>
      <point x="1325" y="345" type="curve" smooth="yes"/>
      <point x="1167" y="345"/>
      <point x="1055" y="502"/>
    </contour>
    <contour>
      <point x="501" y="346" type="curve" smooth="yes"/>
      <point x="305" y="346"/>
      <point x="225" y="477"/>
      <point x="225" y="609" type="curve" smooth="yes"/>
      <point x="225" y="749"/>
      <point x="325" y="879"/>
      <point x="508" y="879" type="curve" smooth="yes"/>
      <point x="659" y="879"/>
      <point x="756" y="722"/>
      <point x="827" y="605" type="curve"/>
      <point x="738" y="453"/>
      <point x="622" y="346"/>
    </contour>
  </outline>
</glyph>
<glyph name="notequal" format="1">
  <advance width="1063"/>
  <unicode hex="2260"/>
  <outline>
    <contour>
      <point x="175" y="0" type="line"/>
      <point x="296" y="0" type="line"/>
      <point x="907" y="1324" type="line"/>
      <point x="786" y="1324" type="line"/>
    </contour>
    <component base="equal"/>
  </outline>
</glyph>
<glyph name="lozenge" format="1">
  <advance width="1175"/>
  <unicode hex="25CA"/>
  <outline>
    <contour>
      <point x="586" y="0" type="line"/>
      <point x="597" y="0" type="line"/>
      <point x="1128" y="760" type="line"/>
      <point x="1128" y="773" type="line"/>
      <point x="596" y="1516" type="line"/>
      <point x="588" y="1516" type="line"/>
      <point x="57" y="773" type="line"/>
      <point x="57" y="760" type="line"/>
    </contour>
    <contour>
      <point x="590" y="221" type="line"/>
      <point x="222" y="764" type="line"/>
      <point x="222" y="770" type="line"/>
      <point x="590" y="1298" type="line"/>
      <point x="593" y="1298" type="line"/>
      <point x="964" y="770" type="line"/>
      <point x="964" y="767" type="line"/>
      <point x="593" y="221" type="line"/>
    </contour>
  </outline>
</glyph>
